<?xml version="1.0" encoding="UTF-8"?>
<svg width="600" height="400" viewBox="0 0 600 400" fill="none" xmlns="http://www.w3.org/2000/svg">
  <!-- Background Elements -->
  <circle cx="300" cy="200" r="180" fill="#F5F3FF" />
  <circle cx="300" cy="200" r="150" fill="#EDE9FE" />
  
  <!-- Abstract AI Visualization -->
  <g transform="translate(150, 100)">
    <!-- Neural Network Nodes -->
    <circle cx="50" cy="50" r="15" fill="#7C3AED" />
    <circle cx="150" cy="30" r="15" fill="#7C3AED" />
    <circle cx="250" cy="50" r="15" fill="#7C3AED" />
    <circle cx="50" cy="150" r="15" fill="#7C3AED" />
    <circle cx="150" cy="170" r="15" fill="#7C3AED" />
    <circle cx="250" cy="150" r="15" fill="#7C3AED" />
    <circle cx="100" cy="100" r="15" fill="#7C3AED" />
    <circle cx="200" cy="100" r="15" fill="#7C3AED" />
    
    <!-- Neural Network Connections -->
    <line x1="50" y1="50" x2="100" y2="100" stroke="#A78BFA" stroke-width="2" />
    <line x1="150" y1="30" x2="100" y2="100" stroke="#A78BFA" stroke-width="2" />
    <line x1="250" y1="50" x2="200" y2="100" stroke="#A78BFA" stroke-width="2" />
    <line x1="50" y1="150" x2="100" y2="100" stroke="#A78BFA" stroke-width="2" />
    <line x1="150" y1="170" x2="100" y2="100" stroke="#A78BFA" stroke-width="2" />
    <line x1="250" y1="150" x2="200" y2="100" stroke="#A78BFA" stroke-width="2" />
    <line x1="100" y1="100" x2="200" y2="100" stroke="#A78BFA" stroke-width="2" />
    <line x1="150" y1="30" x2="200" y2="100" stroke="#A78BFA" stroke-width="2" />
    <line x1="150" y1="170" x2="200" y2="100" stroke="#A78BFA" stroke-width="2" />
  </g>
  
  <!-- Decorative Elements -->
  <circle cx="120" cy="80" r="8" fill="#C4B5FD" />
  <circle cx="480" cy="320" r="8" fill="#C4B5FD" />
  <circle cx="200" cy="350" r="5" fill="#C4B5FD" />
  <circle cx="400" cy="50" r="5" fill="#C4B5FD" />
  
  <!-- Pulse Animation -->
  <circle cx="300" cy="200" r="100" fill="none" stroke="#8B5CF6" stroke-width="2" opacity="0.5">
    <animate attributeName="r" values="100;120;100" dur="4s" repeatCount="indefinite" />
    <animate attributeName="opacity" values="0.5;0.1;0.5" dur="4s" repeatCount="indefinite" />
  </circle>
</svg>
