<?xml version="1.0" encoding="UTF-8"?>
<svg width="180" height="40" viewBox="0 0 180 40" fill="none" xmlns="http://www.w3.org/2000/svg">
  <!-- Purple Labs Logo -->
  <path d="M15.5 8C9.7 8 5 12.7 5 18.5C5 24.3 9.7 29 15.5 29C21.3 29 26 24.3 26 18.5C26 12.7 21.3 8 15.5 8ZM15.5 26C11.36 26 8 22.64 8 18.5C8 14.36 11.36 11 15.5 11C19.64 11 23 14.36 23 18.5C23 22.64 19.64 26 15.5 26Z" fill="#7C3AED"/>
  <path d="M15.5 14C13.01 14 11 16.01 11 18.5C11 20.99 13.01 23 15.5 23C17.99 23 20 20.99 20 18.5C20 16.01 17.99 14 15.5 14Z" fill="#7C3AED"/>
  
  <!-- Text: purplelabs -->
  <path d="M36 14.5V26H39V14.5C39 12.01 41.01 10 43.5 10C45.99 10 48 12.01 48 14.5V26H51V14.5C51 10.36 47.64 7 43.5 7C39.36 7 36 10.36 36 14.5Z" fill="#7C3AED"/>
  <path d="M57 7V26H60V7H57Z" fill="#7C3AED"/>
  <path d="M67 7V26H70V7H67Z" fill="#7C3AED"/>
  <path d="M77 7V26H80V7H77Z" fill="#7C3AED"/>
  <path d="M86 14.5V26H89V14.5C89 12.01 91.01 10 93.5 10C95.99 10 98 12.01 98 14.5V26H101V14.5C101 10.36 97.64 7 93.5 7C89.36 7 86 10.36 86 14.5Z" fill="#7C3AED"/>
  <path d="M107 26V7H110V11C111.5 8.5 114.36 7 117.5 7C121.64 7 125 10.36 125 14.5V26H122V14.5C122 12.01 119.99 10 117.5 10C115.01 10 113 12.01 113 14.5V26H110H107Z" fill="#7C3AED"/>
  <path d="M131 7V26H134V7H131Z" fill="#7C3AED"/>
  <path d="M140 14.5V26H143V14.5C143 12.01 145.01 10 147.5 10C149.99 10 152 12.01 152 14.5V26H155V14.5C155 10.36 151.64 7 147.5 7C143.36 7 140 10.36 140 14.5Z" fill="#7C3AED"/>
  <path d="M161 26V7H164V11C165.5 8.5 168.36 7 171.5 7C175.64 7 179 10.36 179 14.5V26H176V14.5C176 12.01 173.99 10 171.5 10C169.01 10 167 12.01 167 14.5V26H164H161Z" fill="#7C3AED"/>
</svg>
